<svg xmlns="http://www.w3.org/2000/svg" version="1.1" xmlns:xlink="http://www.w3.org/1999/xlink" xmlns:svgjs="http://svgjs.dev/svgjs" width="1000" height="1000"><g clip-path="url(#SvgjsClipPath1332)"><rect width="1000" height="1000" fill="#ffffff"></rect><g transform="matrix(1.5625,0,0,1.5625,100,100)"><svg xmlns="http://www.w3.org/2000/svg" version="1.1" xmlns:xlink="http://www.w3.org/1999/xlink" xmlns:svgjs="http://svgjs.dev/svgjs" width="512" height="512"><svg version="1.1" xmlns="http://www.w3.org/2000/svg" width="512" height="512">
<path d="M0 0 C0 29.37 0 58.74 0 89 C29.37 89 58.74 89 89 89 C87.27800944 92.44398112 86.14290974 94.11274333 83.53342438 96.74619102 C82.81106299 97.4799349 82.0887016 98.21367877 81.34445047 98.9696573 C80.14944493 100.16820248 80.14944493 100.16820248 78.93029785 101.39096069 C78.08626577 102.24516842 77.24223369 103.09937614 76.37262487 103.97946894 C74.0285776 106.34950281 71.68009107 108.71497157 69.32951736 111.07852244 C67.31433677 113.10645733 65.30287329 115.13805886 63.29144579 117.16971533 C56.66684344 123.86090615 50.03047301 130.54035957 43.39088464 137.21667618 C41.66249837 138.95465445 39.93429989 140.69281926 38.20614433 142.43102694 C27.47505288 153.22404469 16.73967819 164.01278999 5.99436188 174.79164696 C3.50659901 177.28730879 1.01888977 179.78302406 -1.46875 182.27880859 C-2.08704377 182.89911908 -2.70533753 183.51942957 -3.34236747 184.15853734 C-13.36509297 194.21530112 -23.36346627 204.29592521 -33.35226792 214.38637249 C-43.6063527 224.74394103 -53.88290515 235.07878859 -64.18160105 245.39200366 C-69.96418638 251.18392039 -75.73624729 256.98555488 -81.483078 262.81296921 C-86.3755481 267.77395967 -91.28780639 272.71420972 -96.22732919 277.62837212 C-98.74742393 280.13679416 -101.25673932 282.65398073 -103.74077606 285.19815826 C-106.43326228 287.95529482 -109.17078184 290.66465808 -111.91442871 293.37094116 C-112.6932533 294.18335561 -113.47207789 294.99577006 -114.27450323 295.83280313 C-119.59040107 300.96898765 -119.59040107 300.96898765 -123.65012836 301.05830503 C-126.22120395 300.56891798 -128.54362439 299.89494947 -131 299 C-131.66045869 298.80498378 -132.32091739 298.60996756 -133.00138998 298.40904176 C-149.76471728 293.36185736 -164.29078522 283.84324787 -177 272 C-177.96679688 271.11441406 -178.93359375 270.22882813 -179.9296875 269.31640625 C-186.72037131 262.83609995 -191.98394833 255.88645386 -197 248 C-197.61617187 247.06800781 -198.23234375 246.13601563 -198.8671875 245.17578125 C-202.66817362 239.11954337 -205.38697752 232.86452685 -207.875 226.1875 C-208.1735791 225.38683105 -208.4721582 224.58616211 -208.77978516 223.76123047 C-209.5845055 221.50942119 -210.36648979 219.30648552 -211 217 C-211.32583289 215.96407463 -211.65166578 214.92814926 -211.9873724 213.86083221 C-212.0037505 208.85330227 -210.50353357 207.55048099 -207.11496693 204.07765436 C-206.36655802 203.35186607 -205.61814912 202.62607778 -204.84706116 201.8782959 C-203.67462118 200.69454447 -203.67462118 200.69454447 -202.47849554 199.48687887 C-199.84556923 196.83839217 -197.1849801 194.2195627 -194.52368164 191.59960938 C-192.6336208 189.71016789 -190.74520333 187.81920817 -188.85870361 185.92622375 C-184.25663079 181.31554851 -179.63370043 176.72634351 -175.00371815 172.14371455 C-169.6098279 166.80312265 -164.23819339 161.44037724 -158.867711 156.07626384 C-149.27972004 146.50090962 -139.67363408 136.9439215 -130.05639648 127.39794922 C-120.73265983 118.14323817 -111.41866822 108.87888699 -102.11694336 99.60205078 C-101.54471371 99.03135752 -100.97248407 98.46066426 -100.38291413 97.87267727 C-98.08254735 95.57842223 -95.78223 93.28411764 -93.48198277 90.98974273 C-83.00506367 80.53987071 -72.52137954 70.09678477 -62.03515625 59.65625 C-61.50378757 59.12718733 -60.97241889 58.59812465 -60.42494813 58.05302978 C-53.77361675 51.43094052 -47.11882674 44.81235525 -40.45863342 38.1991787 C-38.60513305 36.3581607 -36.75241828 34.51635137 -34.90055656 32.67368507 C-32.36791715 30.15404755 -29.83227575 27.63747039 -27.29579163 25.1217041 C-26.56745922 24.39591581 -25.83912681 23.67012752 -25.08872372 22.92234564 C-21.0959374 18.96969722 -17.01099285 15.18280213 -12.74483484 11.52610159 C-10.22207167 9.3195931 -7.90306118 6.96148392 -5.5625 4.5625 C-1.10879285 0 -1.10879285 0 0 0 Z " fill="#000000" transform="translate(227,196)"></path>
<path d="M0 0 C1.46558853 0.0948896 1.46558853 0.0948896 2.96078491 0.19169617 C5.01674126 0.32689294 7.07245788 0.46578046 9.12792969 0.6081543 C12.26953306 0.82395055 15.41189641 1.02305103 18.5546875 1.22070312 C20.55735897 1.3544648 22.55996589 1.48919729 24.5625 1.625 C25.49905426 1.68343582 26.43560852 1.74187164 27.40054321 1.80207825 C35.53395961 2.38699496 39.76185142 4.15858755 45.5703125 10.03515625 C46.38849457 10.84903305 46.38849457 10.84903305 47.22320557 11.67935181 C48.36977912 12.82389075 49.51260044 13.97219954 50.65185547 15.12402344 C52.39620355 16.88446419 54.1560134 18.62829542 55.91796875 20.37109375 C57.03221343 21.48732036 58.1455274 22.60447696 59.2578125 23.72265625 C59.78381042 24.24258148 60.30980835 24.76250671 60.85174561 25.29818726 C64.77773024 29.30083023 65.62526916 32.12503756 66.05322266 37.55493164 C66.11643707 38.33997574 66.17965149 39.12501984 66.24478149 39.93385315 C66.3083786 40.77552536 66.37197571 41.61719757 66.4375 42.484375 C66.50504486 43.36266464 66.57258972 44.24095428 66.6421814 45.14585876 C66.78356674 47.00586625 66.92297356 48.86602504 67.06054688 50.72631836 C67.27090412 53.54032897 67.4945643 56.35307765 67.71875 59.16601562 C69.81857107 86.58888586 69.81857107 86.58888586 60.5390625 98.13671875 C58.76875552 100.11594394 57.00712111 101.94410178 55.11499023 103.79150391 C52.50757412 106.43164754 50.52343403 109.15447836 48.51098633 112.26708984 C43.13681328 119.79189807 37.26922455 125.91334618 27.90844727 127.51846313 C15.08624364 129.06367811 2.0279126 128.33789045 -10.84033203 127.81634521 C-16.20266487 127.6199951 -21.56672973 127.53479265 -26.93164062 127.43945312 C-37.40947125 127.23724871 -47.87964106 126.91416168 -58.3515625 126.51171875 C-64.27009821 38.51879504 -64.27009821 38.51879504 -49.48300171 21.12811279 C-42.74280961 14.20747005 -34.96945898 8.80745983 -26.3515625 4.51171875 C-25.42843262 4.02413086 -24.50530273 3.53654297 -23.55419922 3.03417969 C-15.85786874 -0.72658295 -8.37062794 -0.57905996 0 0 Z " fill="#000000" transform="translate(300.3515625,143.48828125)"></path>
<path d="M0 0 C3.02221822 1.94826368 5.44671636 4.48366098 8 7 C9.1210426 8.03922211 10.24354718 9.07686844 11.3671875 10.11328125 C12.55879477 11.2406008 13.74889356 12.36951692 14.9375 13.5 C15.51765869 14.03326904 16.09781738 14.56653809 16.69555664 15.1159668 C19.54602749 17.89448812 20.89212556 19.66256575 22.12890625 23.53125 C21.89496657 29.82635422 17.39891554 33.85086566 13.11517334 38.12533569 C12.63806357 38.60415432 12.16095379 39.08297294 11.66938615 39.57630122 C10.08344695 41.1655117 8.49050937 42.74750834 6.89746094 44.32958984 C5.75359853 45.47288762 4.61017729 46.61662694 3.46716309 47.76077271 C0.37278681 50.85572149 -2.72770572 53.9444761 -5.82935047 57.03213835 C-9.07339203 60.26365563 -12.31174986 63.50085854 -15.55072021 66.73745728 C-21.68062952 72.86115681 -27.81561806 78.9797413 -33.95245719 85.09649527 C-40.9406506 92.06231407 -47.92314845 99.03383016 -54.90517855 106.00582576 C-69.26379979 120.34355638 -83.62954273 134.67413309 -98 149 C-102.03070124 147.14276623 -104.78284024 144.47282533 -107.859375 141.3359375 C-108.40861633 140.78386627 -108.95785767 140.23179504 -109.52374268 139.66299438 C-111.27059293 137.90498185 -113.01034601 136.1401311 -114.75 134.375 C-115.93573591 133.1792292 -117.1219288 131.98391135 -118.30859375 130.7890625 C-121.21105085 127.86459747 -124.1071641 124.93398126 -127 122 C-125.44427167 118.28147619 -123.16729046 115.91825233 -120.33117676 113.0839386 C-119.85310341 112.60345084 -119.37503007 112.12296308 -118.88246965 111.62791508 C-117.28118374 110.02099864 -115.6728565 108.42132321 -114.06445312 106.8215332 C-112.91428593 105.67029299 -111.76455185 104.51861993 -110.61521912 103.36654663 C-107.49383911 100.24031918 -104.36624458 97.12037768 -101.23737144 94.001652 C-97.96652885 90.73958912 -94.70095555 87.47225919 -91.43469238 84.20561218 C-85.95026265 78.72211897 -80.46197334 73.24251302 -74.97119141 67.76538086 C-68.61717461 61.42710117 -62.26841121 55.08359836 -55.92262506 48.73707896 C-49.82324211 42.63708635 -43.72100979 36.539953 -37.61717224 30.44441795 C-35.01674607 27.84752812 -32.41717612 25.24978557 -29.81825256 22.65139198 C-26.7607218 19.59486341 -23.7006617 16.54088974 -20.63859749 13.48890305 C-19.51300287 12.36623685 -18.38826036 11.2427156 -17.26441765 10.11829567 C-15.73485152 8.58824114 -14.20226198 7.06128235 -12.66882324 5.53511047 C-11.38128773 4.25008873 -11.38128773 4.25008873 -10.06774139 2.93910694 C-6.72766016 -0.19318742 -4.55003486 -0.67407924 0 0 Z " fill="#000000" transform="translate(475,15)"></path>
<path d="M0 0 C0.14695312 1.70542969 0.14695312 1.70542969 0.296875 3.4453125 C2.41309019 26.10460037 9.3754313 46.15891529 26.8828125 61.53125 C43.04373679 74.18993743 59.97655158 78.39304955 80 80 C76.55544271 90.13529422 66.56882349 98.36386392 57.41015625 103.43359375 C43.18420479 110.31185149 27.32352574 112.59783887 11.9921875 108.08984375 C-5.08556409 101.8696183 -17.2430912 91.98275133 -25.23828125 75.4375 C-31.94850692 59.82097481 -31.28475686 43.88730032 -26 28 C-22.5248637 19.46419646 -10.84478448 0 0 0 Z " fill="#000000" transform="translate(70,123)"></path>
<path d="M0 0 C11.21896831 9.54877604 19.72907347 22.98227253 21.28515625 37.8984375 C21.56696171 45.30695478 21.70652439 52.58691978 20.28515625 59.8984375 C-3.57029439 60.73355493 -3.57029439 60.73355493 -14.71484375 55.8984375 C-15.59011719 55.53621094 -16.46539062 55.17398438 -17.3671875 54.80078125 C-32.39692171 47.96908388 -41.79519493 35.97834986 -48.5234375 21.19921875 C-51.20047556 13.78250676 -52.03879865 6.81864525 -51.96484375 -1.0390625 C-51.97257812 -1.88791016 -51.9803125 -2.73675781 -51.98828125 -3.61132812 C-51.98570313 -4.42150391 -51.983125 -5.23167969 -51.98046875 -6.06640625 C-51.97821289 -6.794646 -51.97595703 -7.52288574 -51.97363281 -8.27319336 C-51.71484375 -10.1015625 -51.71484375 -10.1015625 -49.71484375 -12.1015625 C-31.75066042 -16.04554043 -14.30426296 -11.07294025 0 0 Z " fill="#000000" transform="translate(136.71484375,128.1015625)"></path>
</svg></svg></g></g><defs><clipPath id="SvgjsClipPath1332"><rect width="1000" height="1000" x="0" y="0" rx="350" ry="350"></rect></clipPath></defs></svg>